<svg width="12" height="12" viewBox="0 0 12 12" fill="none" xmlns="http://www.w3.org/2000/svg">
<g clip-path="url(#clip0_212:4)">
<path d="M3.24 1.7758e-06H8.115C8.55573 -0.0144214 8.99455 0.064144 9.40289 0.230582C9.81123 0.39702 10.1799 0.647599 10.485 0.966002C11.074 1.62968 11.3858 2.49414 11.356 3.381V7.974C11.3858 8.86086 11.074 9.72533 10.485 10.389C10.1799 10.7074 9.81123 10.958 9.40289 11.1244C8.99455 11.2909 8.55573 11.3694 8.115 11.355H3.24C2.79944 11.3693 2.36079 11.2907 1.95262 11.1243C1.54446 10.9579 1.17592 10.7073 0.871005 10.389C0.282073 9.72527 -0.0296931 8.86085 4.59352e-06 7.974V3.381C-0.0294541 2.49384 0.28308 1.62927 0.873005 0.966002C1.17765 0.647881 1.54586 0.397458 1.95367 0.231026C2.36148 0.0645927 2.79976 -0.0141221 3.24 1.7758e-06V1.7758e-06ZM8.114 10.4C8.42952 10.4119 8.74393 10.3562 9.03612 10.2365C9.32831 10.1168 9.59151 9.93603 9.80804 9.70624C10.0246 9.47645 10.1894 9.20298 10.2915 8.9042C10.3936 8.60542 10.4306 8.28826 10.4 7.974V3.381C10.4311 3.06664 10.3945 2.74928 10.2926 2.45025C10.1908 2.15123 10.0261 1.87749 9.80957 1.64745C9.59308 1.41741 9.32983 1.23641 9.03753 1.11662C8.74523 0.996837 8.43067 0.941045 8.115 0.953002H3.24C2.92418 0.940751 2.60939 0.996326 2.31685 1.11598C2.02431 1.23564 1.76081 1.4166 1.54409 1.64667C1.32738 1.87674 1.16249 2.15059 1.06053 2.44976C0.958569 2.74892 0.921904 3.06647 0.953005 3.381V7.974C0.922209 8.28838 0.959101 8.6057 1.0612 8.90462C1.1633 9.20355 1.32824 9.47714 1.54492 9.70699C1.7616 9.93683 2.02499 10.1176 2.31738 10.2371C2.60976 10.3567 2.92436 10.4122 3.24 10.4H8.114Z" fill="#329626"/>
<path d="M5.01001 7.489C4.94745 7.48917 4.88547 7.47697 4.82764 7.45312C4.76981 7.42927 4.71726 7.39422 4.67301 7.35L3.33901 6.015C3.24973 5.92557 3.19958 5.80437 3.19958 5.678C3.19958 5.55164 3.24973 5.43044 3.33901 5.341C3.42844 5.25173 3.54964 5.20158 3.67601 5.20158C3.80237 5.20158 3.92357 5.25173 4.01301 5.341L5.01301 6.341L7.34201 4.007C7.43144 3.91773 7.55264 3.86758 7.67901 3.86758C7.80537 3.86758 7.92657 3.91773 8.01601 4.007C8.10528 4.09644 8.15543 4.21764 8.15543 4.344C8.15543 4.47037 8.10528 4.59157 8.01601 4.681L5.34701 7.349C5.30284 7.3934 5.25032 7.42863 5.19249 7.45266C5.13465 7.47669 5.07263 7.48904 5.01001 7.489Z" fill="#329626"/>
</g>
<defs>
<clipPath id="clip0_212:4">
<rect width="11.355" height="11.355" fill="white"/>
</clipPath>
</defs>
</svg>
