<svg width="13" height="12" viewBox="0 0 13 12" fill="none" xmlns="http://www.w3.org/2000/svg">
<g clip-path="url(#clip0_212:8)">
<path d="M1.736 11.355H1.716H1.664C1.51668 11.3469 1.37092 11.3207 1.23 11.277L1.09 11.227C0.665569 11.0527 0.325578 10.7202 0.141937 10.2997C-0.0417032 9.87922 -0.0545916 9.4038 0.105998 8.974L0.146998 8.867L4.691 0.913C4.83926 0.645378 5.05441 0.420785 5.31541 0.261155C5.57641 0.101525 5.87435 0.0123166 6.18014 0.00224137C6.48592 -0.00783383 6.78909 0.061569 7.06003 0.203672C7.33098 0.345774 7.56044 0.555718 7.726 0.813L7.783 0.913L12.357 8.927C12.4802 9.22697 12.5181 9.55518 12.4664 9.87533C12.4147 10.1955 12.2754 10.4951 12.064 10.741C11.7665 11.0853 11.3494 11.3037 10.897 11.352L10.787 11.361L1.736 11.355ZM10.763 10.418C10.9827 10.4064 11.1888 10.3082 11.3363 10.145C11.4838 9.98173 11.5606 9.76673 11.55 9.547C11.5471 9.49492 11.5404 9.44312 11.53 9.392L11.516 9.331L6.966 1.366C6.91301 1.27046 6.84171 1.18631 6.75617 1.11835C6.67063 1.0504 6.57252 0.999978 6.46747 0.969978C6.36243 0.939977 6.25249 0.930985 6.14397 0.943515C6.03544 0.956044 5.93045 0.989851 5.835 1.043C5.72518 1.10294 5.63071 1.18748 5.559 1.29L5.508 1.372L0.987998 9.276C0.905133 9.47984 0.906498 9.70823 0.991795 9.91107C1.07709 10.1139 1.23936 10.2746 1.443 10.358C1.50106 10.381 1.5614 10.3977 1.623 10.408L1.717 10.419H10.763V10.418ZM5.77 8.294C5.77 8.16934 5.81931 8.04973 5.90718 7.9613C5.99505 7.87287 6.11434 7.82279 6.239 7.822C6.30036 7.8216 6.3612 7.83333 6.41802 7.85651C6.47484 7.87969 6.52652 7.91386 6.5701 7.95707C6.61367 8.00028 6.64829 8.05166 6.67195 8.10828C6.69562 8.1649 6.70787 8.22563 6.708 8.287V8.294C6.708 8.41839 6.65859 8.53768 6.57063 8.62563C6.48268 8.71359 6.36338 8.763 6.239 8.763C6.11461 8.763 5.99532 8.71359 5.90736 8.62563C5.81941 8.53768 5.77 8.41839 5.77 8.294ZM5.77 6.561V6.497V4.56C5.77568 4.44497 5.82349 4.33606 5.90431 4.25402C5.98512 4.17197 6.09331 4.12253 6.20823 4.11512C6.32316 4.1077 6.43679 4.14283 6.52749 4.21381C6.61818 4.28479 6.67958 4.38666 6.7 4.5V4.564V6.5C6.69895 6.6181 6.65337 6.73146 6.57238 6.81743C6.49139 6.9034 6.38095 6.95564 6.26311 6.96373C6.14528 6.97181 6.02874 6.93514 5.93676 6.86103C5.84479 6.78693 5.78417 6.68085 5.767 6.564L5.77 6.561Z" fill="#B50011"/>
</g>
<defs>
<clipPath id="clip0_212:8">
<rect width="12.489" height="11.355" fill="white"/>
</clipPath>
</defs>
</svg>
